<svg xmlns="http://www.w3.org/2000/svg" viewBox="0 0 100 100" width="100" height="100">
  <!-- Mane -->
  <circle cx="50" cy="50" r="45" fill="#f59e0b"/>
  <circle cx="50" cy="50" r="40" fill="#d97706"/>
  <!-- Face -->
  <circle cx="50" cy="52" r="28" fill="#fbbf24"/>
  <!-- Eyes -->
  <ellipse cx="38" cy="45" rx="5" ry="6" fill="white"/>
  <ellipse cx="62" cy="45" rx="5" ry="6" fill="white"/>
  <circle cx="39" cy="46" r="3" fill="#1e293b"/>
  <circle cx="63" cy="46" r="3" fill="#1e293b"/>
  <!-- Nose -->
  <ellipse cx="50" cy="55" rx="5" ry="3.5" fill="#92400e"/>
  <!-- Mouth -->
  <path d="M44 60 Q50 66 56 60" fill="none" stroke="#92400e" stroke-width="2" stroke-linecap="round"/>
  <!-- Whiskers -->
  <line x1="20" y1="52" x2="38" y2="54" stroke="#92400e" stroke-width="1.5" stroke-linecap="round"/>
  <line x1="20" y1="58" x2="38" y2="57" stroke="#92400e" stroke-width="1.5" stroke-linecap="round"/>
  <line x1="80" y1="52" x2="62" y2="54" stroke="#92400e" stroke-width="1.5" stroke-linecap="round"/>
  <line x1="80" y1="58" x2="62" y2="57" stroke="#92400e" stroke-width="1.5" stroke-linecap="round"/>
  <!-- Ears -->
  <circle cx="28" cy="28" r="10" fill="#d97706"/>
  <circle cx="28" cy="28" r="6" fill="#fbbf24"/>
  <circle cx="72" cy="28" r="10" fill="#d97706"/>
  <circle cx="72" cy="28" r="6" fill="#fbbf24"/>
</svg>